<?xml version="1.0" encoding="UTF-8" standalone="no"?>
<svg
   width="1536"
   height="1792"
   viewBox="0 0 1536 1792"
   version="1.1"
   id="svg52"
   sodipodi:docname="matrix.svg"
   inkscape:version="1.2.1 (9c6d41e410, 2022-07-14)"
   xmlns:inkscape="http://www.inkscape.org/namespaces/inkscape"
   xmlns:sodipodi="http://sodipodi.sourceforge.net/DTD/sodipodi-0.dtd"
   xmlns="http://www.w3.org/2000/svg"
   xmlns:svg="http://www.w3.org/2000/svg">
  <defs
     id="defs56" />
  <sodipodi:namedview
     id="namedview54"
     pagecolor="#ffffff"
     bordercolor="#000000"
     borderopacity="0.25"
     inkscape:showpageshadow="2"
     inkscape:pageopacity="0.0"
     inkscape:pagecheckerboard="0"
     inkscape:deskcolor="#d1d1d1"
     showgrid="false"
     inkscape:zoom="0.45851426"
     inkscape:cx="438.37241"
     inkscape:cy="929.0878"
     inkscape:window-width="1920"
     inkscape:window-height="1014"
     inkscape:window-x="0"
     inkscape:window-y="0"
     inkscape:window-maximized="1"
     inkscape:current-layer="svg52" />
  <path
     d="M 101.14005,209.36092 97.355358,1568.6403 206.64058,1567.873 201.22772,1663.1736 -1.9594538,1664 0,128 l 218.85795,1.21904 -0.17991,79.39743 z M 491.224,627.792 l -1.95945,74.14 h 4.02845 c 19.79,-28.356 43.717,-50.215 71.483,-65.575 27.765,-15.656 59.963,-23.336 96,-23.336 34.56,0 66.165,6.795 94.818,20.086 28.652,13.293 50.216,37.22 65.28,70.893 16.246,-23.926 38.4,-45.194 66.166,-63.507 27.766,-18.314 60.848,-27.472 98.954,-27.472 28.948,0 55.828,3.545 80.64,10.635 24.812,7.088 45.785,18.314 63.508,33.968 17.722,15.656 31.31,35.742 41.354,60.85 9.747,25.107 14.768,55.236 14.768,90.683 v 366.573 h -150.35 V 865.28 c 0,-18.314 -0.59,-35.741 -2.068,-51.987 -1.476,-16.247 -5.316,-30.426 -11.52,-42.24 -6.499,-12.112 -15.656,-21.563 -28.062,-28.653 -12.405,-7.088 -29.242,-10.634 -50.214,-10.634 -21.268,0 -38.4,4.135 -51.397,12.112 -12.997,8.27 -23.336,18.608 -30.72,31.901 -7.386,12.997 -12.407,27.765 -14.77,44.602 -2.363,16.542 -3.84,33.379 -3.84,50.216 l -1.95945,305.133 h -150.352 v -307.2 c 0,-16.247 1.66545,-32.197 0.77945,-48.149 -0.591,-15.95 -3.84,-30.424 -9.157,-44.011 -5.317,-13.293 -14.178,-24.223 -26.585,-32.197 -12.406,-7.976 -30.425,-12.112 -54.646,-12.112 -7.088,0 -16.542,1.478 -28.062,4.726 -11.52,3.25 -24.99945,9.157 -35.92745,18.02 -10.93,8.86 -20.383,21.563 -28.063,38.103 -7.68,16.543 -11.52,38.4 -11.52,65.28 v 317.834 h -150.35 L 349.44,627.792 Z m 948.9331,946.498 -7.3266,-1361.10377 -75.8993,1.78906 L 1356.1644,128 H 1536 v 1536 l -203.2638,-1.772 -2.0277,-87.1457 z"
     fill="currentColor"
     id="path50"
     sodipodi:nodetypes="cccccccccccccscccscccsccscccscccsccscccscccsccccccccccccc" />
</svg>
